<?xml version="1.0" encoding="UTF-8"?>
<svg id="Layer_1" data-name="Layer 1" xmlns="http://www.w3.org/2000/svg" viewBox="0 0 39.83 36.46">
  <defs>
    <style>
      .cls-1 {
        fill: #ffd624;
        stroke-width: 0px;
      }
    </style>
  </defs>
  <path class="cls-1" d="M39.83,18.86l-1.64,1.64c-.42.43-1.1.43-1.53,0l-1-1-.23-.23c-4.74-4.74-9.48-9.47-14.22-14.21-.84-.84-1.49-.83-2.33,0l-2.07,2.07.02.02L3.49,20.49c-.43.43-1.11.43-1.54,0l-1.64-1.64c-.43-.43-.43-1.1,0-1.53l1.09-1.09.06-.06c.1-.11.2-.21.31-.32,2.35-2.34,4.69-4.69,7.05-7.04l4.85-4.85c.73-.73,1.47-1.46,2.2-2.19,1.97-1.97,4.88-2.35,7.24-.92.42.26.81.61,1.17.96.74.72,1.47,1.46,2.21,2.19.62.62,1.25,1.26,1.87,1.88.02.02.05.03.1.07v-.02l11.39,11.39c.42.42.42,1.1,0,1.53Z"/>
  <path class="cls-1" d="M12.61,28.14c0,.21,0,.42,0,.61v.58c0,.35-.27.62-.61.61-.33,0-.59-.26-.59-.61,0-.4,0-.8,0-1.19,0-.34.27-.6.6-.6s.59.26.6.6Z"/>
  <path class="cls-1" d="M12.61,31.75c0,.2,0,.4,0,.6v.58c0,.35-.26.62-.59.62s-.6-.26-.61-.62c0-.4,0-.79,0-1.18,0-.34.27-.62.61-.61.33.02.58.27.59.62Z"/>
  <path class="cls-1" d="M17.05,22.94c0-.34.27-.6.6-.6s.6.25.6.59c0,.41,0,.81,0,1.21,0,.34-.27.6-.6.59-.33,0-.59-.26-.6-.61v-1.18Z"/>
  <path class="cls-1" d="M17.05,20.53v-1.18c0-.35.27-.62.61-.62s.59.26.6.62v1.18c0,.34-.27.6-.59.61-.34,0-.61-.25-.62-.61Z"/>
  <path class="cls-1" d="M17.05,26.56c0-.34.27-.62.61-.61.33,0,.59.26.6.6v1.19c0,.34-.27.6-.6.61-.33,0-.6-.26-.61-.62v-1.18Z"/>
  <path class="cls-1" d="M17.05,30.15c0-.34.27-.6.6-.6s.59.25.61.59v1.19c0,.35-.27.62-.61.62s-.59-.26-.59-.61c0-.4,0-.81,0-1.19Z"/>
  <path class="cls-1" d="M20.65,30.75c0,.2,0,.4,0,.6,0,.34-.27.6-.6.6s-.6-.25-.6-.6c0-.41,0-.81,0-1.21,0-.33.28-.59.61-.59s.58.25.59.59c0,.21,0,.41,0,.62Z"/>
  <path class="cls-1" d="M20.65,27.15v.58c0,.35-.26.62-.6.62-.33,0-.6-.26-.6-.62,0-.39,0-.79,0-1.18,0-.35.27-.62.61-.61.33,0,.59.26.59.6,0,.2,0,.4,0,.6Z"/>
  <path class="cls-1" d="M19.46,22.95c0-.34.26-.6.59-.61.33,0,.61.26.61.61,0,.4,0,.79,0,1.18,0,.35-.27.61-.6.61s-.59-.26-.6-.61v-.58c0-.2,0-.4,0-.6Z"/>
  <path class="cls-1" d="M20.65,19.95v.58c0,.35-.27.61-.61.61s-.59-.26-.59-.61c0-.4,0-.8,0-1.2,0-.33.27-.6.6-.6s.59.25.6.59c0,.22,0,.42,0,.62Z"/>
  <path class="cls-1" d="M22.44,31.94c-.33,0-.59-.26-.59-.6v-1.19c0-.34.27-.6.59-.6s.6.25.61.59c0,.41,0,.81,0,1.21,0,.34-.27.6-.61.59Z"/>
  <path class="cls-1" d="M21.86,22.95c0-.34.27-.6.59-.61.33,0,.6.25.61.59,0,.41,0,.81,0,1.21,0,.34-.27.6-.61.59-.33,0-.59-.26-.59-.6v-1.18Z"/>
  <path class="cls-1" d="M21.86,20.54v-1.19c0-.34.27-.6.59-.6s.6.25.61.59c0,.41,0,.81,0,1.22,0,.33-.28.59-.61.59-.32,0-.58-.27-.59-.61Z"/>
  <path class="cls-1" d="M23.06,26.57v1.18c0,.34-.26.6-.59.61-.33,0-.6-.26-.61-.62v-1.18c0-.35.27-.62.61-.62.32,0,.58.27.59.62Z"/>
  <path class="cls-1" d="M23.06,33.86v2.32h-1.21v-1.82h-1.18v1.82h-1.22v-1.82h-1.18v1.82h-1.21v-2.32c0-.48.23-.71.71-.71h4.58c.47,0,.71.23.71.71Z"/>
  <path class="cls-1" d="M28.69,28.15v1.18c0,.35-.26.62-.6.62s-.6-.26-.61-.62v-1.18c0-.35.27-.61.61-.61.33,0,.59.27.6.61Z"/>
  <path class="cls-1" d="M28.69,31.74c0,.41,0,.81,0,1.21,0,.33-.28.6-.61.59-.33,0-.59-.26-.6-.61v-1.19c0-.34.27-.6.6-.6s.6.25.61.6Z"/>
  <path class="cls-1" d="M34.1,22.96c0,3.08,0,6.14,0,9.22,0,1.97-1.39,3.6-3.32,3.95-.15.03-.32.05-.47.05v-10.59c-.16-.34-.43-.45-.81-.44-1.13.02-2.25,0-3.37,0h-.21v11.03h-1.22v-18.23c0-.37-.1-.65-.44-.8h-8.4c-.34.15-.44.43-.44.8,0,6.08,0,12.15,0,18.23h-1.21v-11.03h-3.7c-.47,0-.7.24-.7.7v10.32c-1.98-.14-3.44-1.47-3.76-3.46-.04-.24-.04-.48-.04-.71,0-3,0-6.02,0-9.03,0-.48.15-.84.49-1.18,4.21-4.2,8.4-8.39,12.61-12.6.67-.66,1.23-.67,1.89,0,4.21,4.2,8.4,8.4,12.61,12.59.34.33.51.7.51,1.18Z"/>
</svg>