<?xml version="1.0" encoding="UTF-8"?>
<svg id="Layer_1" data-name="Layer 1" xmlns="http://www.w3.org/2000/svg" viewBox="0 0 722.9 338.9">
  <defs>
    <style>
      .cls-1 {
        stroke-width: 0px;
      }

      .cls-1, .cls-2 {
        fill: #ce1440;
      }

      .cls-2 {
        font-family: Verdana, Verdana;
        font-size: 56.02px;
      }
    </style>
  </defs>
  <g>
    <path class="cls-1" d="M722.9,204.4c-1.44.44-2.91.52-4.42.52-24.83-.02-49.66-.01-74.5-.03-.77,0-1.64.31-2.75-.78,4.06-5.66,8.14-11.41,12.29-17.11,1.19-1.63,3.07-1.03,4.65-.94,11.49.65,22.98.01,34.47.32,2.92.08,3.38-1.17,2.99-3.6-1.53-9.44-6.38-16.17-15.7-19.37-6.29-2.16-12.75-2.5-19.21-1.34-10.12,1.81-16.62,8.03-19.77,17.56-3.74,11.35-3.65,22.92.18,34.15,6.77,19.89,33.4,26.51,47.73,12.12.93-.94,2.06-1.89,2.49-3.06,1.26-3.44,3.16-3.67,6.44-2.49,7.17,2.58,14.52,4.66,22.16,7.06-12.08,16.18-27.91,24.61-47.66,25.68-6.98.38-13.94-.05-20.83-1.69-20.82-4.97-32.31-18.57-36.48-38.84-2.73-13.3-1.17-26.45,3.26-39.13,8.09-23.15,29.85-35.79,54.83-32.33,6.94.96,13.78,2.32,20.19,5.23,18.13,8.23,26.84,22.86,28.75,42.07.73,1.91.2,3.9.36,5.85.26,2.72-.56,5.51.51,8.18v1.99Z"/>
    <path class="cls-1" d="M722.9,202.41c-2.29-2.46-.41-5.33-.8-7.98.28-.45.54-.42.8.02v7.96Z"/>
    <path class="cls-1" d="M722.9,194.46c-.27,0-.53,0-.8-.02-.31-2.01-.34-4.03-.08-6.05.28.11.57.14.87.11v5.97Z"/>
    <path class="cls-1" d="M35.96,142.68c.73,2.01.44,3.66.44,5.25.02,17.73.03,35.46,0,53.2,0,3.18.32,6.26,1.43,9.26,3.56,9.55,10.88,14.15,20.9,13.09,9.53-1.01,15.81-7.2,17.12-17.1.39-2.94.52-5.94.52-8.91.03-53.03.05-106.06-.05-159.09,0-3.41.83-5.81,3.44-8.14,10.88-9.71,21.57-19.64,33.14-30.23v5.93c0,67.28-.05,134.57.03,201.85.02,18.88-8.79,32.22-25.98,39.14-21.1,8.49-42.72,8.22-63.53-1.25C8.04,238.66-.24,226.45.05,209.09c.17-9.94.15-19.89-.05-29.83-.06-2.95.95-4.86,3.07-6.78,10.11-9.12,20.09-18.39,30.13-27.59.8-.73,1.69-1.36,2.76-2.21Z"/>
    <path class="cls-1" d="M370.38,167.25c-9.22-19.61-29.38-29.73-51.01-26.8-11.44,1.55-21.15,6.44-30.46,14.72v-5.81c0-18.9-.11-37.78.08-56.68.04-3.94-.89-6.68-4.04-9.35-8.24-6.96-16.1-14.38-24.12-21.6-.91-.82-1.71-1.88-3.43-2.22v5.29c0,51.21,0,102.42-.02,153.62,0,8.44-.03,16.89-.39,25.33-.15,3.61,1.14,4.43,4.52,4.32,6.99-.25,13.99-.08,20.99-.08q5.65,0,6.02-5.75c0-.24.36-.46.68-.85,3.03,2.27,5.92,4.74,9.32,6.46,16.66,8.43,33.47,6.95,50.18.43,11.61-4.53,19.85-12.96,23.98-24.54,6.78-19.01,6.34-38.15-2.3-56.51ZM318.64,228.43c-17.54.49-32.15-13.01-32.98-29.78-.87-17.67,12.78-33.08,31.32-33.52,17.39-.41,31.69,13.45,32.22,31.11.52,17.04-13.4,31.7-30.56,32.18Z"/>
    <path class="cls-1" d="M596.76,227.42c-15.88,20.7-36.56,27.84-61.17,25.28-8.36-.87-16.29-3.25-23.38-7.9-12.69-8.33-18.97-20.69-20.96-35.15-1.98-14.33-.23-28.43,6.1-41.63,8.38-17.48,22.83-26.31,41.96-27.26,13.54-.67,26.54,2.09,38.09,9.57,13.57,8.79,19.61,22.01,21.43,37.49.52,4.42.34,8.89.3,13.35-.03,3.1-1.18,3.84-4.14,3.81-13.5-.14-26.99-.06-40.49-.06-11.98,0-23.96,0-37.07,0,4.64-6.47,8.77-12.31,12.99-18.08.91-1.25,2.45-.88,3.74-.8,11.49.69,22.98.04,34.47.36,3.13.09,4.1-.8,3.6-3.99-1.31-8.29-5.33-14.45-13.13-18.02-19.32-8.86-38.67.3-42.87,20.39-.54,2.58-.9,5.24-1.01,7.87-.33,8,.36,15.87,3.55,23.35,7.15,16.8,29.27,22.97,44.18,12.29,2.17-1.56,4.33-3.32,5.38-5.77,1.37-3.22,3.27-3.15,6.16-2.16,7.2,2.47,14.52,4.63,22.27,7.07Z"/>
    <path class="cls-1" d="M237.34,142.37c1.1,1.77.72,3.1.72,4.36.03,32.32.03,64.64.01,96.96,0,5.13.56,4.62-4.4,4.63-7.83.02-15.67-.15-23.5.08-3.2.1-4.08-.98-3.82-3.96.24-2.73.05-5.49.05-8.27-2.45.04-3.43,1.58-4.74,2.48-11.15,7.63-23.38,11.73-36.99,11.5-13.91-.24-32.54-9.61-32.72-32.39-.11-14.58.08-29.17.13-43.75,0-1.81-.06-3.42,1.6-4.91,9.52-8.53,18.91-17.21,28.36-25.83.19-.17.58-.11,1.05-.19.67,1.55.32,3.2.33,4.79.03,19.06.01,38.12.02,57.18,0,10.72,5.35,16.79,16.17,18.41,16.52,2.47,27.02-6.49,27.14-23.24.06-8.62.01-17.24,0-25.86,0-1.81-.29-3.69,1.5-4.97.4-.29.73-.68,1.1-1.02,9.23-8.58,18.46-17.16,28-26.03Z"/>
    <path class="cls-1" d="M476.74,59.42c0,2.84,0,4.43,0,6.03,0,59.17,0,118.34,0,177.51,0,.83-.08,1.67.01,2.48.26,2.26-.45,3.3-2.99,3.27-8.66-.12-17.33-.19-26,.03-3.29.08-2.87-1.81-2.87-3.8,0-17.24-.01-34.47,0-51.71.04-32.98.17-65.96.08-98.94-.01-3.95.97-6.68,4.05-9.38,9.11-7.98,17.85-16.36,27.71-25.49Z"/>
    <path class="cls-1" d="M425.74,141.38c0,35.09-.03,68.9.06,102.71,0,2.94-.61,4.07-3.83,3.98-8.33-.23-16.67-.16-25-.03-2.41.04-3.12-.68-3.11-3.08.08-24.03.05-48.07.04-72.1,0-1.18.08-2.22,1.07-3.13,10-9.17,19.96-18.38,30.77-28.36Z"/>
  </g>
  <text class="cls-2" transform="translate(33.49 321.91)"><tspan x="0" y="0">GENERAL INSURANCE</tspan></text>
</svg>