<?xml version="1.0" encoding="UTF-8"?>
<svg id="Layer_1" data-name="Layer 1" xmlns="http://www.w3.org/2000/svg" viewBox="0 0 210.07 27.04">
  <defs>
    <style>
      .cls-1 {
        fill: #fff;
        stroke-width: 0px;
      }
    </style>
  </defs>
  <path class="cls-1" d="M15.2,26.66v-2.22h-.12c-.3.71-2.32,2.59-5.78,2.59-4.43,0-9.31-3.34-9.31-10.14S4.88,6.75,9.31,6.75c3.46,0,5.48,1.88,5.78,2.59h.12V0h5.82v26.66h-5.82ZM10.52,21.85c2.55,0,4.84-1.76,4.84-4.96s-2.29-4.96-4.84-4.96-4.77,1.8-4.77,4.96,2.29,4.96,4.77,4.96Z"/>
  <path class="cls-1" d="M23.62,16.93c0-6.6,4.92-10.18,9.95-10.18s10.77,3.46,9.53,12.39h-13.88c.79,2.1,2.74,3.16,5.33,3.16,1.73,0,3.27-.42,4.69-1.5l2.63,2.74c-1.61,2.03-4.4,3.49-7.96,3.49-5.41,0-10.29-3.68-10.29-10.1ZM38,14.98c-.42-2.25-2.41-3.34-4.35-3.34s-3.91,1.01-4.54,3.34h8.89Z"/>
  <path class="cls-1" d="M44.94,16.9c0-6.79,4.88-10.14,9.31-10.14,3.46,0,5.48,1.88,5.78,2.59h.11v-2.22h5.82v19.52h-5.82v-2.22h-.11c-.3.71-2.32,2.59-5.78,2.59-4.42.02-9.31-3.33-9.31-10.12ZM55.45,21.85c2.55,0,4.84-1.76,4.84-4.96s-2.29-4.96-4.84-4.96-4.77,1.8-4.77,4.96,2.29,4.96,4.77,4.96Z"/>
  <path class="cls-1" d="M69.5,0h5.82v26.66h-5.82V0Z"/>
  <path class="cls-1" d="M77.72,21.47l4.62-1.24c.3.94.98,2.25,2.81,2.25,1.05,0,2.03-.52,2.03-1.61,0-.64-.37-1.24-1.66-1.66l-2.62-.98c-3.23-1.17-4.62-3.27-4.62-5.71,0-3.65,3.26-5.78,7.09-5.78s6.34,2.06,7.02,5.22l-4.54,1.13c-.49-1.5-1.47-1.84-2.25-1.84-1.13,0-1.69.68-1.69,1.35s.38,1.24,1.69,1.66l2.44.9c2.1.71,4.88,2.18,4.88,5.71,0,3.94-3.34,6.16-7.7,6.16-3.94,0-6.9-1.85-7.51-5.57Z"/>
  <path class="cls-1" d="M94.58,16.9c0-6.79,4.88-10.14,9.31-10.14,3.45,0,5.48,1.88,5.78,2.59h.12v-2.22h5.82v19.52h-5.82v-2.22h-.12c-.3.71-2.33,2.59-5.78,2.59-4.43.02-9.31-3.33-9.31-10.12ZM105.09,21.85c2.55,0,4.84-1.76,4.84-4.96s-2.29-4.96-4.84-4.96-4.77,1.8-4.77,4.96,2.29,4.96,4.77,4.96Z"/>
  <path class="cls-1" d="M124.96,0v9.34h.12c.3-.71,2.32-2.59,5.78-2.59,4.43,0,9.31,3.34,9.31,10.14s-4.88,10.14-9.31,10.14c-3.46,0-5.48-1.88-5.78-2.59h-.12v2.22h-5.82V0h5.82ZM129.65,21.85c2.48,0,4.77-1.8,4.77-4.96s-2.29-4.96-4.77-4.96-4.84,1.76-4.84,4.96,2.29,4.96,4.84,4.96Z"/>
  <path class="cls-1" d="M141.82,16.9c0-6.79,4.88-10.14,9.31-10.14,3.46,0,5.48,1.88,5.78,2.59h.12v-2.22h5.82v19.52h-5.82v-2.22h-.12c-.3.71-2.32,2.59-5.78,2.59-4.42.02-9.31-3.33-9.31-10.12ZM152.33,21.85c2.55,0,4.84-1.76,4.84-4.96s-2.29-4.96-4.84-4.96-4.77,1.8-4.77,4.96,2.29,4.96,4.77,4.96Z"/>
  <path class="cls-1" d="M165.43,16.9c0-6.79,4.88-10.14,9.31-10.14,3.46,0,5.48,1.88,5.78,2.59h.11v-2.22h5.82v19.52h-5.82v-2.22h-.11c-.3.71-2.32,2.59-5.78,2.59-4.42.02-9.31-3.33-9.31-10.12ZM175.94,21.85c2.55,0,4.84-1.76,4.84-4.96s-2.29-4.96-4.84-4.96-4.77,1.8-4.77,4.96,2.29,4.96,4.77,4.96Z"/>
  <path class="cls-1" d="M204.26,26.66v-2.22h-.12c-.3.71-2.32,2.59-5.78,2.59-4.43,0-9.31-3.34-9.31-10.14s4.88-10.14,9.31-10.14c3.46,0,5.48,1.88,5.78,2.59h.12V0h5.82v26.66h-5.82ZM199.56,21.85c2.55,0,4.84-1.76,4.84-4.96s-2.29-4.96-4.84-4.96-4.77,1.8-4.77,4.96,2.29,4.96,4.77,4.96Z"/>
</svg>